<?xml version="1.0" encoding="utf-8"?>
<svg viewBox="189.64 200.184 68 68" width="68" height="68" xmlns="http://www.w3.org/2000/svg">
  <defs>
    <clipPath id="clip0_115_46">
      <rect width="39.1" height="39.1" fill="white" transform="translate(15 14)"/>
    </clipPath>
  </defs>
  <circle cx="34.2" cy="34" r="34" fill="#1A3961" transform="matrix(1, 0, 0, 1, 189.440399, 200.184235)"/>
  <g clip-path="url(#clip0_115_46)" transform="matrix(1, 0, 0, 1, 189.440399, 200.184235)">
    <path d="M54.1 33.6689C54.1 22.8724 45.3465 14.1189 34.55 14.1189C23.7535 14.1189 15 22.8724 15 33.6689C15 43.4276 22.1488 51.5148 31.4953 52.981V39.3205H26.5312V33.6673H31.4953V29.363C31.4953 24.4641 34.4148 21.7564 38.8803 21.7564C41.0178 21.7564 43.2563 22.1393 43.2563 22.1393V26.9502H40.7897C38.3606 26.9502 37.6031 28.4572 37.6031 30.0033V33.6689H43.0249L42.1582 39.3221H37.6031V52.9827C46.9512 51.5148 54.1 43.426 54.1 33.6689Z" fill="white"/>
  </g>
</svg>