<?xml version="1.0" encoding="utf-8"?>
<svg viewBox="177.987 138.586 68 68" width="68" height="68" xmlns="http://www.w3.org/2000/svg">
  <defs>
    <clipPath id="clip0_115_45">
      <rect width="39.1" height="39.1" fill="white" transform="translate(14.85 14.45)"/>
    </clipPath>
  </defs>
  <circle cx="34.4" cy="34" r="34" fill="#1A3961" transform="matrix(1, 0, 0, 1, 177.58667, 138.586014)"/>
  <g clip-path="url(#clip0_115_45)" transform="matrix(1, 0, 0, 1, 177.58667, 138.586014)">
    <path d="M34.4 14.9348C23.5987 14.9348 14.85 23.6883 14.85 34.4848C14.85 43.1243 20.4511 50.4506 28.2173 53.0329C29.1948 53.217 29.5533 52.6125 29.5533 52.0928C29.5533 51.6285 29.537 50.3985 29.5288 48.7693C24.0907 49.9489 22.9437 46.1464 22.9437 46.1464C22.0542 43.89 20.7688 43.2872 20.7688 43.2872C18.9979 42.0751 20.9056 42.0995 20.9056 42.0995C22.8688 42.2364 23.9001 44.1132 23.9001 44.1132C25.6433 47.1027 28.4764 46.2392 29.594 45.7391C29.7699 44.4749 30.2734 43.613 30.8322 43.1243C26.4904 42.6355 21.9271 40.9542 21.9271 33.4633C21.9271 31.3291 22.6847 29.5859 23.9392 28.2174C23.7192 27.7238 23.0594 25.7362 24.1102 23.0432C24.1102 23.0432 25.7475 22.5186 29.4865 25.0471C31.0505 24.6121 32.7122 24.397 34.374 24.3872C36.0357 24.397 37.6975 24.6121 39.2615 25.0471C42.976 22.5186 44.6133 23.0432 44.6133 23.0432C45.6641 25.7362 45.0043 27.7238 44.8088 28.2174C46.0551 29.5859 46.8127 31.3291 46.8127 33.4633C46.8127 40.9738 42.2428 42.6274 37.893 43.108C38.5772 43.6945 39.2126 44.8936 39.2126 46.7247C39.2126 49.3412 39.1882 51.4428 39.1882 52.0782C39.1882 52.5914 39.5303 53.2023 40.5322 53.0068C48.3538 50.4425 53.95 43.1113 53.95 34.4848C53.95 23.6883 45.1965 14.9348 34.4 14.9348Z" fill="white"/>
  </g>
</svg>