<?xml version="1.0" encoding="utf-8"?>
<svg viewBox="192.97 199.074 68 68" width="68" height="68" xmlns="http://www.w3.org/2000/svg">
  <defs>
    <clipPath id="clip0_115_48">
      <rect width="39.1" height="39.1" fill="white" transform="translate(15.05 14.45)"/>
    </clipPath>
  </defs>
  <circle cx="34.6" cy="34" r="34" fill="#1A3961" transform="matrix(1, 0, 0, 1, 192.370026, 199.074356)"/>
  <g clip-path="url(#clip0_115_48)" transform="matrix(1, 0, 0, 1, 192.370026, 199.074356)">
    <path d="M34.6 14.45C29.2889 14.45 28.6258 14.4744 26.5405 14.5673C24.4584 14.665 23.041 14.9925 21.7947 15.4763C20.5093 15.9749 19.4178 16.6444 18.3311 17.7311C17.2445 18.8177 16.5733 19.9077 16.0764 21.1947C15.5925 22.441 15.2634 23.8584 15.1673 25.9405C15.0695 28.0258 15.05 28.6889 15.05 34C15.05 39.311 15.0744 39.9741 15.1673 42.0594C15.265 44.1399 15.5925 45.5589 16.0764 46.8052C16.5749 48.089 17.2445 49.1822 18.3311 50.2688C19.4178 51.3538 20.5077 52.0267 21.7947 52.5236C23.0427 53.0058 24.4601 53.3365 26.5405 53.4326C28.6258 53.5304 29.2889 53.5499 34.6 53.5499C39.9111 53.5499 40.5741 53.5255 42.6595 53.4326C44.7399 53.3349 46.1589 53.0058 47.4052 52.5236C48.689 52.0251 49.7822 51.3538 50.8688 50.2688C51.9539 49.1822 52.6267 48.0939 53.1236 46.8052C53.6058 45.5589 53.9366 44.1399 54.0327 42.0594C54.1304 39.9741 54.15 39.311 54.15 34C54.15 28.6889 54.1255 28.0258 54.0327 25.9405C53.9349 23.86 53.6058 22.4394 53.1236 21.1947C52.6251 19.9093 51.9539 18.8177 50.8688 17.7311C49.7822 16.6444 48.6939 15.9732 47.4052 15.4763C46.1589 14.9925 44.7399 14.6634 42.6595 14.5673C40.5741 14.4695 39.9111 14.45 34.6 14.45ZM34.6 17.969C39.8182 17.969 40.4405 17.995 42.5014 18.0846C44.4076 18.1742 45.4421 18.4903 46.1296 18.7607C47.0452 19.1143 47.6936 19.5378 48.3811 20.2205C49.0637 20.9047 49.4873 21.5547 49.8408 22.4703C50.108 23.1578 50.4273 24.1924 50.5137 26.0985C50.6065 28.161 50.6277 28.7801 50.6277 34C50.6277 39.2198 50.6033 39.8405 50.5072 41.9014C50.4078 43.8075 50.0901 44.8421 49.8213 45.5296C49.4564 46.4452 49.0409 47.0936 48.3567 47.7811C47.674 48.4637 47.0142 48.8873 46.1084 49.2408C45.4242 49.508 44.3734 49.8273 42.4672 49.9137C40.3917 50.0065 39.7807 50.0277 34.5511 50.0277C29.3199 50.0277 28.7089 50.0033 26.635 49.9071C24.7272 49.8078 23.6764 49.4901 22.9922 49.2213C22.0652 48.8563 21.4282 48.4409 20.7456 47.7566C20.0597 47.074 19.6214 46.4142 19.2793 45.5084C19.0105 44.8241 18.6944 43.7733 18.5951 41.8672C18.5217 39.8144 18.4957 39.1807 18.4957 33.9755C18.4957 28.7687 18.5217 28.1333 18.5951 26.0561C18.6944 24.15 19.0105 23.1008 19.2793 22.4166C19.6214 21.488 20.0597 20.8526 20.7456 20.1667C21.4282 19.4841 22.0652 19.0442 22.9922 18.7037C23.6764 18.4333 24.7044 18.1156 26.6106 18.0178C28.6877 17.9445 29.2987 17.9201 34.5267 17.9201L34.6 17.969ZM34.6 23.961C29.0527 23.961 24.5611 28.4575 24.5611 34C24.5611 39.5473 29.0576 44.0389 34.6 44.0389C40.1473 44.0389 44.6389 39.5424 44.6389 34C44.6389 28.4526 40.1424 23.961 34.6 23.961ZM34.6 40.5166C30.9995 40.5166 28.0833 37.6004 28.0833 34C28.0833 30.3995 30.9995 27.4833 34.6 27.4833C38.2004 27.4833 41.1167 30.3995 41.1167 34C41.1167 37.6004 38.2004 40.5166 34.6 40.5166ZM47.3824 23.5651C47.3824 24.8603 46.33 25.9111 45.0364 25.9111C43.7412 25.9111 42.6904 24.8587 42.6904 23.5651C42.6904 22.2716 43.7429 21.2208 45.0364 21.2208C46.3284 21.2191 47.3824 22.2716 47.3824 23.5651Z" fill="white"/>
  </g>
</svg>