<?xml version="1.0" encoding="utf-8"?>
<svg viewBox="278.431 176.877 68 68" width="68" height="68" xmlns="http://www.w3.org/2000/svg">
  <circle cx="34" cy="34" r="34" fill="#1A3961" transform="matrix(1, 0, 0, 1, 278.430634, 176.876801)"/>
  <path d="M26.8926 22.5366H24.9995V42.7717H26.8926V22.5366Z" fill="white" transform="matrix(1, 0, 0, 1, 278.430634, 176.876801)"/>
  <path d="M42.6681 22.5366H40.775V42.7717H42.6681V22.5366Z" fill="white" transform="matrix(1, 0, 0, 1, 278.430634, 176.876801)"/>
  <path d="M33.8338 51.6246C28.9626 51.6246 24.9995 47.6531 24.9995 42.7717H26.8926C26.8926 46.6072 30.0063 49.7275 33.8338 49.7275V51.6246Z" fill="white" transform="matrix(1, 0, 0, 1, 278.430634, 176.876801)"/>
  <path d="M33.8338 51.6246V49.7275C37.6612 49.7275 40.775 46.6072 40.775 42.7717H42.6681C42.6681 47.6531 38.705 51.6246 33.8338 51.6246Z" fill="white" transform="matrix(1, 0, 0, 1, 278.430634, 176.876801)"/>
  <path d="M34.7803 22.5366H32.8873V50.676H34.7803V22.5366Z" fill="white" transform="matrix(1, 0, 0, 1, 278.430634, 176.876801)"/>
  <path d="M41.7216 40.8745H25.9461V42.7715H41.7216V40.8745Z" fill="white" transform="matrix(1, 0, 0, 1, 278.430634, 176.876801)"/>
  <path d="M41.7216 32.0217H25.9461V33.9188H41.7216V32.0217Z" fill="white" transform="matrix(1, 0, 0, 1, 278.430634, 176.876801)"/>
  <path d="M45.1922 23.8013C45.1922 24.4969 44.6242 25.066 43.9301 25.066H23.7375C23.0434 25.066 22.4755 24.4969 22.4755 23.8013V17.4778C22.4755 16.7822 23.0434 16.2131 23.7375 16.2131H43.9301C44.6242 16.2131 45.1922 16.7822 45.1922 17.4778V23.8013Z" fill="white" transform="matrix(1, 0, 0, 1, 278.430634, 176.876801)"/>
</svg>