<?xml version="1.0" encoding="utf-8"?>
<svg viewBox="175.212 94.468 68 68" width="68" height="68" xmlns="http://www.w3.org/2000/svg">
  <defs>
    <clipPath id="clip0_115_47">
      <rect width="39.1" height="39.1" fill="white" transform="translate(14.45 14.45)"/>
    </clipPath>
  </defs>
  <circle cx="209.212" cy="128.468" r="34" fill="#1A3961"/>
  <g clip-path="url(#clip0_115_47)" transform="matrix(1, 0, 0, 1, 175.21199, 94.468369)">
    <path d="M53.4734 21.8952C52.0096 22.5397 50.4588 22.9652 48.871 23.1578C50.5427 22.1531 51.7944 20.5773 52.3949 18.7216C50.8456 19.6258 49.1284 20.284 47.3005 20.6506C46.0945 19.361 44.4965 18.5056 42.7546 18.2174C41.0126 17.9292 39.2242 18.2242 37.6671 19.0566C36.1101 19.889 34.8714 21.2122 34.1435 22.8208C33.4155 24.4294 33.2391 26.2333 33.6416 27.9525C26.9783 27.6381 21.0758 24.4367 17.1218 19.6014C16.403 20.8229 16.0281 22.2162 16.0368 23.6336C16.0368 26.4194 17.4542 28.8681 19.6014 30.3066C18.3288 30.2661 17.0843 29.922 15.9716 29.3031V29.4008C15.9709 31.2522 16.6107 33.0468 17.7825 34.4802C18.9542 35.9135 20.5858 36.8974 22.4003 37.2648C21.2246 37.5798 19.9931 37.6272 18.7966 37.4033C19.3116 38.9966 20.3112 40.3894 21.6558 41.3874C23.0005 42.3854 24.6231 42.9387 26.2973 42.9701C23.4618 45.1955 19.9606 46.4033 16.3561 46.3995C15.7207 46.3995 15.087 46.3621 14.45 46.2904C18.1249 48.6434 22.3979 49.8925 26.7616 49.8892C41.5105 49.8892 49.5667 37.677 49.5667 27.1053C49.5667 26.7632 49.5667 26.4211 49.5422 26.0789C51.116 24.9464 52.4735 23.5404 53.55 21.9278L53.4734 21.8952Z" fill="white"/>
  </g>
</svg>