<?xml version="1.0" encoding="utf-8"?>
<svg viewBox="288.42 180.761 68 68" width="68" height="68" xmlns="http://www.w3.org/2000/svg">
  <defs>
    <clipPath id="clip0_115_34">
      <rect width="39.1" height="39.1" fill="white" transform="translate(15.55 14.75)"/>
    </clipPath>
  </defs>
  <circle cx="34.8" cy="34" r="34" fill="#1A3961" transform="matrix(1, 0, 0, 1, 287.619537, 180.761368)"/>
  <g clip-path="url(#clip0_115_34)" transform="matrix(1, 0, 0, 1, 287.619537, 180.761368)">
    <path d="M53.8322 24.828C53.6113 23.996 53.1757 23.2365 52.569 22.6258C51.9622 22.0151 51.2057 21.5745 50.3751 21.3481C47.3269 20.5254 35.1 20.5254 35.1 20.5254C35.1 20.5254 22.8732 20.5254 19.8234 21.3481C18.9931 21.5749 18.237 22.0156 17.6306 22.6263C17.0242 23.237 16.5888 23.9962 16.3679 24.828C15.55 27.8974 15.55 34.3 15.55 34.3C15.55 34.3 15.55 40.7026 16.3679 43.772C16.5888 44.604 17.0244 45.3635 17.6311 45.9742C18.2379 46.5849 18.9944 47.0255 19.825 47.2519C22.8732 48.0746 35.1 48.0746 35.1 48.0746C35.1 48.0746 47.3269 48.0746 50.3767 47.2519C51.2074 47.0257 51.964 46.5851 52.5708 45.9744C53.1775 45.3636 53.6131 44.6041 53.8338 43.772C54.65 40.7026 54.65 34.3 54.65 34.3C54.65 34.3 54.65 27.8974 53.8322 24.828ZM31.1004 40.1129V28.4871L41.3202 34.3L31.1004 40.1129Z" fill="white"/>
  </g>
</svg>